<mxfile host="app.diagrams.net" modified="2022-11-22T23:09:23.996Z" agent="5.0 (Windows NT 10.0; Win64; x64) AppleWebKit/537.36 (KHTML, like Gecko) Chrome/105.0.0.0 Safari/537.36 OPR/91.0.4516.106" etag="7fXS2GXJ7J4LatGA0bRq" version="20.6.0" type="github">
  <diagram id="K0TK_ToPiscMgbhRq1A_" name="Page-1">
    <mxGraphModel dx="952" dy="527" grid="0" gridSize="10" guides="1" tooltips="1" connect="1" arrows="1" fold="1" page="1" pageScale="1" pageWidth="850" pageHeight="1100" math="0" shadow="0">
      <root>
        <mxCell id="0" />
        <mxCell id="1" parent="0" />
        <mxCell id="jp_tEm2xKEhfohlV_05O-1" value="" style="rounded=0;whiteSpace=wrap;html=1;dashed=1;strokeColor=#3333FF;" parent="1" vertex="1">
          <mxGeometry x="60" y="176" width="507" height="172" as="geometry" />
        </mxCell>
        <mxCell id="jp_tEm2xKEhfohlV_05O-2" value="&lt;b&gt;&lt;font color=&quot;#3399ff&quot;&gt;THU THẬP, XỬ LÝ, TẠO BỘ PHÂN LỚP, LƯU TRỮ BỘ PHÂN LỚP&lt;/font&gt;&lt;/b&gt;" style="text;html=1;align=center;verticalAlign=middle;resizable=0;points=[];autosize=1;strokeColor=none;fillColor=none;" parent="1" vertex="1">
          <mxGeometry x="111" y="189" width="388" height="26" as="geometry" />
        </mxCell>
        <mxCell id="jp_tEm2xKEhfohlV_05O-3" value="Tập hình ảnh đã qua xử lý, gắn nhãn" style="whiteSpace=wrap;html=1;aspect=fixed;strokeColor=#000000;" parent="1" vertex="1">
          <mxGeometry x="92" y="241" width="79" height="79" as="geometry" />
        </mxCell>
        <mxCell id="jp_tEm2xKEhfohlV_05O-4" value="Xây dựng bộ phân lớp bằng thuật toán SVM" style="ellipse;whiteSpace=wrap;html=1;strokeColor=#000000;" parent="1" vertex="1">
          <mxGeometry x="244.5" y="241" width="120" height="80" as="geometry" />
        </mxCell>
        <mxCell id="jp_tEm2xKEhfohlV_05O-5" value="Bộ phân lớp" style="shape=cylinder3;whiteSpace=wrap;html=1;boundedLbl=1;backgroundOutline=1;size=15;strokeColor=#000000;" parent="1" vertex="1">
          <mxGeometry x="438" y="240" width="95" height="80" as="geometry" />
        </mxCell>
        <mxCell id="jp_tEm2xKEhfohlV_05O-7" value="" style="endArrow=classic;html=1;rounded=0;fontColor=#3399FF;exitX=1;exitY=0.5;exitDx=0;exitDy=0;entryX=0;entryY=0.5;entryDx=0;entryDy=0;" parent="1" source="jp_tEm2xKEhfohlV_05O-3" target="jp_tEm2xKEhfohlV_05O-4" edge="1">
          <mxGeometry width="50" height="50" relative="1" as="geometry">
            <mxPoint x="279" y="338" as="sourcePoint" />
            <mxPoint x="329" y="288" as="targetPoint" />
          </mxGeometry>
        </mxCell>
        <mxCell id="jp_tEm2xKEhfohlV_05O-8" value="" style="endArrow=classic;html=1;rounded=0;fontColor=#3399FF;exitX=1;exitY=0.5;exitDx=0;exitDy=0;entryX=0;entryY=0.5;entryDx=0;entryDy=0;" parent="1" edge="1">
          <mxGeometry width="50" height="50" relative="1" as="geometry">
            <mxPoint x="364.5" y="284" as="sourcePoint" />
            <mxPoint x="438" y="284.4999999999999" as="targetPoint" />
          </mxGeometry>
        </mxCell>
        <mxCell id="jp_tEm2xKEhfohlV_05O-9" value="" style="rounded=0;whiteSpace=wrap;html=1;dashed=1;strokeColor=#00CC00;" parent="1" vertex="1">
          <mxGeometry x="270" y="362" width="298" height="165" as="geometry" />
        </mxCell>
        <mxCell id="jp_tEm2xKEhfohlV_05O-11" value="Hình ảnh đầu vào" style="whiteSpace=wrap;html=1;aspect=fixed;strokeColor=#000000;" parent="1" vertex="1">
          <mxGeometry x="291" y="418" width="79" height="79" as="geometry" />
        </mxCell>
        <mxCell id="jp_tEm2xKEhfohlV_05O-12" value="&lt;b&gt;&lt;font color=&quot;#00cc00&quot;&gt;TRUY VẤN&lt;/font&gt;&lt;/b&gt;" style="text;html=1;align=center;verticalAlign=middle;resizable=0;points=[];autosize=1;strokeColor=none;fillColor=none;" parent="1" vertex="1">
          <mxGeometry x="354" y="377" width="79" height="26" as="geometry" />
        </mxCell>
        <mxCell id="jp_tEm2xKEhfohlV_05O-15" value="Dự đoán thông qua bộ phân lớp" style="whiteSpace=wrap;html=1;aspect=fixed;strokeColor=#000000;" parent="1" vertex="1">
          <mxGeometry x="445" y="418" width="79" height="79" as="geometry" />
        </mxCell>
        <mxCell id="jp_tEm2xKEhfohlV_05O-16" value="" style="endArrow=classic;html=1;rounded=0;fontColor=#3399FF;exitX=1;exitY=0.5;exitDx=0;exitDy=0;entryX=0;entryY=0.5;entryDx=0;entryDy=0;" parent="1" edge="1">
          <mxGeometry width="50" height="50" relative="1" as="geometry">
            <mxPoint x="369" y="459.99999999999994" as="sourcePoint" />
            <mxPoint x="442.5" y="460.49999999999983" as="targetPoint" />
          </mxGeometry>
        </mxCell>
        <mxCell id="jp_tEm2xKEhfohlV_05O-17" value="" style="endArrow=classic;html=1;rounded=0;fontColor=#00CC00;" parent="1" source="jp_tEm2xKEhfohlV_05O-5" target="jp_tEm2xKEhfohlV_05O-15" edge="1">
          <mxGeometry width="50" height="50" relative="1" as="geometry">
            <mxPoint x="494" y="401" as="sourcePoint" />
            <mxPoint x="544" y="351" as="targetPoint" />
          </mxGeometry>
        </mxCell>
        <mxCell id="jp_tEm2xKEhfohlV_05O-18" value="" style="endArrow=classic;html=1;rounded=0;fontColor=#00CC00;" parent="1" edge="1">
          <mxGeometry width="50" height="50" relative="1" as="geometry">
            <mxPoint x="524" y="462" as="sourcePoint" />
            <mxPoint x="599" y="462" as="targetPoint" />
          </mxGeometry>
        </mxCell>
        <mxCell id="jp_tEm2xKEhfohlV_05O-19" value="&lt;font color=&quot;#000000&quot;&gt;Danh sách kết quả&lt;/font&gt;" style="ellipse;whiteSpace=wrap;html=1;fontColor=#00CC00;strokeColor=#000000;" parent="1" vertex="1">
          <mxGeometry x="599" y="418" width="86" height="80" as="geometry" />
        </mxCell>
      </root>
    </mxGraphModel>
  </diagram>
</mxfile>
